<svg width="90" height="56" viewBox="0 0 90 56" fill="none" xmlns="http://www.w3.org/2000/svg">
<g clip-path="url(#clip0_59941_309)">
<path d="M47.06 14.69L45 13.75L47.06 12.81L48 10.75L48.94 12.81L51 13.75L48.94 14.69L48 16.75L47.06 14.69ZM37 18.75L37.94 16.69L40 15.75L37.94 14.81L37 12.75L36.06 14.81L34 15.75L36.06 16.69L37 18.75ZM41.5 13.75L42.59 11.34L45 10.25L42.59 9.16L41.5 6.75L40.41 9.16L38 10.25L40.41 11.34L41.5 13.75ZM37.5 25.25L43.5 19.24L47.5 23.24L56 13.68L54.59 12.27L47.5 20.24L43.5 16.24L36 23.75L37.5 25.25Z" fill="#46464F"/>
</g>
<path d="M24.2265 45V36.06H25.4025V45H24.2265ZM27.7585 45V38.532H28.8505V39.852L28.6945 39.648C28.8545 39.24 29.1105 38.928 29.4625 38.712C29.8145 38.496 30.2105 38.388 30.6505 38.388C31.1545 38.388 31.6065 38.528 32.0065 38.808C32.4145 39.088 32.6945 39.456 32.8465 39.912L32.5345 39.924C32.7025 39.42 32.9865 39.04 33.3865 38.784C33.7865 38.52 34.2305 38.388 34.7185 38.388C35.1665 38.388 35.5705 38.492 35.9305 38.7C36.2985 38.908 36.5905 39.196 36.8065 39.564C37.0225 39.932 37.1305 40.348 37.1305 40.812V45H36.0025V41.172C36.0025 40.812 35.9385 40.508 35.8105 40.26C35.6825 40.012 35.5065 39.82 35.2825 39.684C35.0665 39.54 34.8105 39.468 34.5145 39.468C34.2265 39.468 33.9665 39.54 33.7345 39.684C33.5105 39.82 33.3305 40.016 33.1945 40.272C33.0665 40.52 33.0025 40.82 33.0025 41.172V45H31.8745V41.172C31.8745 40.812 31.8105 40.508 31.6825 40.26C31.5545 40.012 31.3785 39.82 31.1545 39.684C30.9385 39.54 30.6825 39.468 30.3865 39.468C30.0985 39.468 29.8385 39.54 29.6065 39.684C29.3825 39.82 29.2025 40.016 29.0665 40.272C28.9385 40.52 28.8745 40.82 28.8745 41.172V45H27.7585ZM39.2156 47.4V38.532H40.3076V39.924L40.1636 39.648C40.4036 39.264 40.7316 38.96 41.1476 38.736C41.5636 38.504 42.0396 38.388 42.5756 38.388C43.1836 38.388 43.7276 38.536 44.2076 38.832C44.6956 39.128 45.0796 39.532 45.3596 40.044C45.6396 40.548 45.7796 41.124 45.7796 41.772C45.7796 42.404 45.6396 42.976 45.3596 43.488C45.0796 44 44.6956 44.404 44.2076 44.7C43.7276 44.996 43.1796 45.144 42.5636 45.144C42.0436 45.144 41.5676 45.028 41.1356 44.796C40.7116 44.564 40.3836 44.236 40.1516 43.812L40.3316 43.62V47.4H39.2156ZM42.4796 44.064C42.8876 44.064 43.2516 43.964 43.5716 43.764C43.8916 43.564 44.1396 43.292 44.3156 42.948C44.4996 42.596 44.5916 42.204 44.5916 41.772C44.5916 41.324 44.4996 40.932 44.3156 40.596C44.1396 40.252 43.8916 39.98 43.5716 39.78C43.2516 39.572 42.8876 39.468 42.4796 39.468C42.0716 39.468 41.7036 39.568 41.3756 39.768C41.0556 39.968 40.7996 40.244 40.6076 40.596C40.4236 40.94 40.3316 41.332 40.3316 41.772C40.3316 42.204 40.4236 42.596 40.6076 42.948C40.7996 43.292 41.0556 43.564 41.3756 43.764C41.7036 43.964 42.0716 44.064 42.4796 44.064ZM49.6389 45.144C49.2149 45.144 48.8389 45.068 48.5109 44.916C48.1909 44.756 47.9389 44.54 47.7549 44.268C47.5709 43.988 47.4789 43.668 47.4789 43.308C47.4789 42.964 47.5509 42.656 47.6949 42.384C47.8469 42.104 48.0789 41.868 48.3909 41.676C48.7109 41.484 49.1109 41.348 49.5909 41.268L51.9909 40.872V41.808L49.8429 42.168C49.4269 42.24 49.1229 42.372 48.9309 42.564C48.7469 42.756 48.6549 42.992 48.6549 43.272C48.6549 43.536 48.7589 43.756 48.9669 43.932C49.1829 44.108 49.4509 44.196 49.7709 44.196C50.1789 44.196 50.5309 44.112 50.8269 43.944C51.1309 43.768 51.3669 43.532 51.5349 43.236C51.7109 42.94 51.7989 42.612 51.7989 42.252V40.608C51.7989 40.256 51.6669 39.972 51.4029 39.756C51.1469 39.532 50.8069 39.42 50.3829 39.42C50.0149 39.42 49.6869 39.516 49.3989 39.708C49.1189 39.892 48.9109 40.14 48.7749 40.452L47.8029 39.948C47.9229 39.652 48.1149 39.388 48.3789 39.156C48.6429 38.916 48.9509 38.728 49.3029 38.592C49.6549 38.456 50.0229 38.388 50.4069 38.388C50.9029 38.388 51.3389 38.484 51.7149 38.676C52.0909 38.86 52.3829 39.12 52.5909 39.456C52.8069 39.784 52.9149 40.168 52.9149 40.608V45H51.8229V43.776L52.0269 43.848C51.8909 44.104 51.7069 44.328 51.4749 44.52C51.2429 44.712 50.9709 44.864 50.6589 44.976C50.3469 45.088 50.0069 45.144 49.6389 45.144ZM58.1453 45.144C57.5133 45.144 56.9493 44.996 56.4533 44.7C55.9653 44.404 55.5813 44 55.3013 43.488C55.0213 42.976 54.8813 42.4 54.8813 41.76C54.8813 41.112 55.0213 40.536 55.3013 40.032C55.5813 39.528 55.9653 39.128 56.4533 38.832C56.9493 38.536 57.5133 38.388 58.1453 38.388C58.5693 38.388 58.9653 38.464 59.3333 38.616C59.7013 38.768 60.0253 38.972 60.3053 39.228C60.5853 39.484 60.7893 39.784 60.9173 40.128L59.9213 40.608C59.7693 40.272 59.5373 40 59.2253 39.792C58.9133 39.576 58.5533 39.468 58.1453 39.468C57.7533 39.468 57.3973 39.568 57.0773 39.768C56.7653 39.968 56.5173 40.24 56.3333 40.584C56.1493 40.928 56.0573 41.324 56.0573 41.772C56.0573 42.204 56.1493 42.596 56.3333 42.948C56.5173 43.292 56.7653 43.564 57.0773 43.764C57.3973 43.964 57.7533 44.064 58.1453 44.064C58.5533 44.064 58.9133 43.96 59.2253 43.752C59.5373 43.536 59.7693 43.252 59.9213 42.9L60.9173 43.404C60.7893 43.74 60.5853 44.04 60.3053 44.304C60.0253 44.56 59.7013 44.764 59.3333 44.916C58.9653 45.068 58.5693 45.144 58.1453 45.144ZM65.5037 45.072C64.8717 45.072 64.3837 44.892 64.0397 44.532C63.7037 44.172 63.5357 43.664 63.5357 43.008V39.6H62.3597V38.532H62.5997C62.8877 38.532 63.1157 38.444 63.2837 38.268C63.4517 38.092 63.5357 37.86 63.5357 37.572V37.044H64.6517V38.532H66.1037V39.6H64.6517V42.972C64.6517 43.188 64.6837 43.376 64.7477 43.536C64.8197 43.696 64.9357 43.824 65.0957 43.92C65.2557 44.008 65.4677 44.052 65.7317 44.052C65.7877 44.052 65.8557 44.048 65.9357 44.04C66.0237 44.032 66.1037 44.024 66.1757 44.016V45C66.0717 45.024 65.9557 45.04 65.8277 45.048C65.6997 45.064 65.5917 45.072 65.5037 45.072Z" fill="#46464F"/>
<defs>
<clipPath id="clip0_59941_309">
<rect x="17" width="56" height="32" rx="16" fill="white"/>
</clipPath>
</defs>
</svg>
